<svg xmlns="http://www.w3.org/2000/svg" width="1024" height="1024" viewBox="0 0 1024 1024" fill="none">
  <defs>
    <radialGradient id="orb" cx="390" cy="300" r="560" gradientUnits="userSpaceOnUse">
      <stop offset="0%" stop-color="#a78bfa" />
      <stop offset="38%" stop-color="#8b5cf6" />
      <stop offset="72%" stop-color="#7c3aed" />
      <stop offset="100%" stop-color="#5b21b6" />
    </radialGradient>
    <linearGradient id="rim" x1="512" y1="96" x2="512" y2="928" gradientUnits="userSpaceOnUse">
      <stop offset="0%" stop-color="#ffffff" stop-opacity="0.22" />
      <stop offset="55%" stop-color="#ffffff" stop-opacity="0.04" />
      <stop offset="100%" stop-color="#000000" stop-opacity="0.12" />
    </linearGradient>
    <filter id="shadow" x="-20%" y="-20%" width="140%" height="140%">
      <feDropShadow dx="0" dy="14" stdDeviation="20" flood-color="#6d28d9" flood-opacity="0.32" />
    </filter>
  </defs>

  <circle cx="512" cy="512" r="448" fill="url(#orb)" filter="url(#shadow)" />
  <circle cx="512" cy="512" r="448" fill="url(#rim)" />
  <ellipse cx="404" cy="352" rx="168" ry="108" fill="#ffffff" opacity="0.14" />

  <g transform="translate(512 498)">
    <g transform="scale(15.5) translate(-12 -11)">
      <path
        d="M12 2a8 8 0 0 0-8 8v12l3-3 2.5 2.5L12 19l2.5 2.5L17 19l3 3V10a8 8 0 0 0-8-8z"
        fill="none"
        stroke="#ffffff"
        stroke-width="2.35"
        stroke-linecap="round"
        stroke-linejoin="round"
      />
      <circle cx="9" cy="10" r="1.15" fill="#ffffff" />
      <circle cx="15" cy="10" r="1.15" fill="#ffffff" />
    </g>
  </g>
</svg>
